<svg id="Layer_1" data-name="Layer 1" xmlns="http://www.w3.org/2000/svg" viewBox="0 0 122.88 122.88"><title>eur</title><path d="M30.27,0H92.61a30.35,30.35,0,0,1,30.27,30.27V92.61a30.35,30.35,0,0,1-30.27,30.27H30.27A30.35,30.35,0,0,1,0,92.61V30.27A30.35,30.35,0,0,1,30.27,0Zm42,63.34-1.69,7H58.84c1.52,4.81,4.84,7.22,9.91,7.22a25.79,25.79,0,0,0,15.64-5.39V86.64a25.24,25.24,0,0,1-14.58,4.12q-13.81,0-20.44-6.3a26.14,26.14,0,0,1-8.08-14.07h-7l1.84-7h4.28a16,16,0,0,1-.08-2.05,19.91,19.91,0,0,1,.08-2.23H35.24L37.08,52h4.21q5-19.89,27.65-19.89a32.22,32.22,0,0,1,15,4l-3.49,14q-5.28-4.84-11-4.84c-5,0-8.41,2.25-10.16,6.74h14l-1.69,7.05H57.92c-.05.52-.08,1.26-.08,2.23v2.05ZM92.61,12.1H30.27A18.23,18.23,0,0,0,12.1,30.27V92.61a18.23,18.23,0,0,0,18.17,18.17H92.61a18.23,18.23,0,0,0,18.17-18.17V30.27A18.23,18.23,0,0,0,92.61,12.1Z"/></svg>