<svg id="Layer_1" data-name="Layer 1" xmlns="http://www.w3.org/2000/svg" viewBox="0 0 122.88 122.88"><title>gbp</title><path d="M30.27,0H92.61a30.35,30.35,0,0,1,30.27,30.27V92.61a30.35,30.35,0,0,1-30.27,30.27H30.27A30.35,30.35,0,0,1,0,92.61V30.27A30.35,30.35,0,0,1,30.27,0Zm29,57.18H70.7v9.07H60.55A19.31,19.31,0,0,1,59.37,72a14.66,14.66,0,0,1-2.64,4.07,17.27,17.27,0,0,1,3.63-.47,22.84,22.84,0,0,1,5,.74,32,32,0,0,0,6.78,1A16.53,16.53,0,0,0,75.78,77a21.88,21.88,0,0,0,4-1.47L85,86.82a33.83,33.83,0,0,1-6.59,2.59,25,25,0,0,1-6.08.71,31.88,31.88,0,0,1-8.14-1.24c-4-1.1-6.48-1.73-7.45-1.91a17.75,17.75,0,0,0-3.1-.26q-4.89,0-10.77,3.41L37.92,79.34q8-5.69,8-11.39c0-.21,0-.77-.08-1.7h-7.9V57.18h5.65c-1-3.32-1.51-5.26-1.62-5.79a15.59,15.59,0,0,1-.24-3,14.87,14.87,0,0,1,2.52-8.49,14.31,14.31,0,0,1,6.62-5.45,29.35,29.35,0,0,1,11.06-1.71,29.52,29.52,0,0,1,10.3,1.46,14.66,14.66,0,0,1,6.42,4.83,19.52,19.52,0,0,1,3.62,8.19L67.76,49.5C67,46.82,66.19,45,65.25,44.16A4.57,4.57,0,0,0,62,42.84a4.67,4.67,0,0,0-3.54,1.43,5.71,5.71,0,0,0-1.35,4.07,13.15,13.15,0,0,0,.27,2.7c.17.88.77,2.92,1.81,6.14ZM92.61,12.1H30.27A18.23,18.23,0,0,0,12.1,30.27V92.61a18.23,18.23,0,0,0,18.17,18.17H92.61a18.23,18.23,0,0,0,18.17-18.17V30.27A18.23,18.23,0,0,0,92.61,12.1Z"/></svg>