<svg id="Layer_1" data-name="Layer 1" xmlns="http://www.w3.org/2000/svg" viewBox="0 0 122.88 122.88"><title>usd</title><path d="M30.27,0H92.61a30.35,30.35,0,0,1,30.27,30.27V92.61a30.35,30.35,0,0,1-30.27,30.27H30.27A30.35,30.35,0,0,1,0,92.61V30.27A30.35,30.35,0,0,1,30.27,0ZM54.81,88.26A17.51,17.51,0,0,1,53,88l-3.27-.46-2-.34q-1-.18-1.95-.39c-.69-.16-1.33-.31-1.89-.46l-.77-.21V73.53l3.57.29,2.63.15,2.75.12,2.79.09,2.71,0,2.51,0c.77,0,1.44,0,2-.08a12.78,12.78,0,0,0,1.59-.24,5.64,5.64,0,0,0,1.12-.38,2.47,2.47,0,0,0,.67-.46,1.42,1.42,0,0,0,.34-.53,2.55,2.55,0,0,0,.12-.83V70.9a1.67,1.67,0,0,0-.64-1.46,2.92,2.92,0,0,0-.87-.42,3.55,3.55,0,0,0-1.07-.15H59.6a26.7,26.7,0,0,1-7.39-.93,14.77,14.77,0,0,1-5.52-2.86,11.77,11.77,0,0,1-3.44-5.2,22.5,22.5,0,0,1-1.11-7.48V50.1A18.83,18.83,0,0,1,43.37,43a12.8,12.8,0,0,1,3.74-5.17,17.8,17.8,0,0,1,3.7-2.44,15.11,15.11,0,0,1,4-1.2V28.61H66.46V34a51.82,51.82,0,0,1,5.31.77l1,.17c.82.14,1.63.3,2.44.47s1.49.32,2.18.48l.79.2V48.73L77,48.63c-1.11-.1-2.24-.19-3.38-.25s-2.49-.15-3.78-.21-2.61-.1-3.78-.12-2.23,0-3.44,0q-1,0-1.77.06a15.21,15.21,0,0,0-1.53.19,4.74,4.74,0,0,0-1.1.34,2.48,2.48,0,0,0-.71.49,1.55,1.55,0,0,0-.38.63A3.42,3.42,0,0,0,57,50.8v.69a2.86,2.86,0,0,0,.2,1.13,1.87,1.87,0,0,0,.53.71,2.69,2.69,0,0,0,1,.48A6.75,6.75,0,0,0,60.5,54h4.59a21.57,21.57,0,0,1,4.69.49A14,14,0,0,1,73.7,56,13,13,0,0,1,79,61.42a15.71,15.71,0,0,1,1.32,3.63,18.26,18.26,0,0,1,.43,4v2.3a27.6,27.6,0,0,1-.6,6A13.82,13.82,0,0,1,78.26,82a12,12,0,0,1-3,3.18,12.88,12.88,0,0,1-4.07,1.94l-.39.11a22.48,22.48,0,0,1-4.3.93v6.06H54.81v-6ZM92.61,12.1H30.27A18.23,18.23,0,0,0,12.1,30.27V92.61a18.23,18.23,0,0,0,18.17,18.17H92.61a18.23,18.23,0,0,0,18.17-18.17V30.27A18.23,18.23,0,0,0,92.61,12.1Z"/></svg>